<mxfile host="app.diagrams.net" agent="Mozilla/5.0 (Macintosh; Intel Mac OS X 10_15_7) AppleWebKit/537.36 (KHTML, like Gecko) Chrome/134.0.0.0 Safari/537.36" version="26.0.14">
  <diagram name="第 1 页" id="N2d8EQnb91wtyV32rCFE">
    <mxGraphModel dx="984" dy="625" grid="1" gridSize="10" guides="1" tooltips="1" connect="1" arrows="1" fold="1" page="1" pageScale="1" pageWidth="827" pageHeight="1169" math="0" shadow="0">
      <root>
        <mxCell id="0" />
        <mxCell id="1" parent="0" />
        <mxCell id="SHFSCuuUwZEexuSwmKcd-10" value="&lt;div&gt;&lt;span style=&quot;font-size: 14px;&quot;&gt;实际测试类&lt;/span&gt;&lt;/div&gt;&lt;div&gt;&lt;span style=&quot;font-size: 14px;&quot;&gt;&lt;br&gt;&lt;/span&gt;&lt;/div&gt;&lt;div&gt;&lt;br&gt;&lt;/div&gt;&lt;div&gt;&lt;br&gt;&lt;/div&gt;&lt;div&gt;&lt;br&gt;&lt;/div&gt;&lt;div&gt;&lt;br&gt;&lt;/div&gt;&lt;div&gt;&lt;br&gt;&lt;/div&gt;&lt;div&gt;&lt;br&gt;&lt;/div&gt;&lt;div&gt;&lt;br&gt;&lt;/div&gt;" style="rounded=1;whiteSpace=wrap;html=1;fillColor=none;" vertex="1" parent="1">
          <mxGeometry x="70" y="280" width="460" height="150" as="geometry" />
        </mxCell>
        <mxCell id="SHFSCuuUwZEexuSwmKcd-1" value="&lt;font style=&quot;font-size: 18px;&quot;&gt;Load/Store优化技术逆向探查——实验框架&lt;/font&gt;" style="rounded=0;whiteSpace=wrap;html=1;" vertex="1" parent="1">
          <mxGeometry x="80" y="120" width="440" height="40" as="geometry" />
        </mxCell>
        <mxCell id="SHFSCuuUwZEexuSwmKcd-2" value="&lt;font style=&quot;font-size: 18px;&quot;&gt;ASMGenerator&lt;/font&gt;&lt;div&gt;&lt;font style=&quot;font-size: 17px;&quot;&gt;汇编相关&lt;/font&gt;&lt;/div&gt;" style="rounded=0;whiteSpace=wrap;html=1;" vertex="1" parent="1">
          <mxGeometry x="80" y="200" width="140" height="60" as="geometry" />
        </mxCell>
        <mxCell id="SHFSCuuUwZEexuSwmKcd-3" value="&lt;font style=&quot;font-size: 18px;&quot;&gt;Perf&lt;/font&gt;&lt;div&gt;&lt;font style=&quot;font-size: 16px;&quot;&gt;性能测试等&lt;/font&gt;&lt;/div&gt;" style="rounded=0;whiteSpace=wrap;html=1;" vertex="1" parent="1">
          <mxGeometry x="230" y="200" width="140" height="60" as="geometry" />
        </mxCell>
        <mxCell id="SHFSCuuUwZEexuSwmKcd-4" value="&lt;span style=&quot;font-size: 18px;&quot;&gt;LSDependency&lt;/span&gt;" style="rounded=0;whiteSpace=wrap;html=1;" vertex="1" parent="1">
          <mxGeometry x="80" y="350" width="140" height="30" as="geometry" />
        </mxCell>
        <mxCell id="SHFSCuuUwZEexuSwmKcd-5" value="&lt;span style=&quot;font-size: 18px;&quot;&gt;LSForwarding&lt;/span&gt;" style="rounded=0;whiteSpace=wrap;html=1;" vertex="1" parent="1">
          <mxGeometry x="80" y="390" width="140" height="30" as="geometry" />
        </mxCell>
        <mxCell id="SHFSCuuUwZEexuSwmKcd-6" value="&lt;span style=&quot;font-size: 18px;&quot;&gt;BasicBench&lt;/span&gt;" style="rounded=0;whiteSpace=wrap;html=1;" vertex="1" parent="1">
          <mxGeometry x="80" y="310" width="140" height="30" as="geometry" />
        </mxCell>
        <mxCell id="SHFSCuuUwZEexuSwmKcd-7" value="&lt;font style=&quot;font-size: 18px;&quot;&gt;Utils&lt;/font&gt;&lt;div&gt;&lt;font style=&quot;font-size: 16px;&quot;&gt;绑核、预热等工具&lt;/font&gt;&lt;/div&gt;" style="rounded=0;whiteSpace=wrap;html=1;" vertex="1" parent="1">
          <mxGeometry x="380" y="200" width="140" height="60" as="geometry" />
        </mxCell>
        <mxCell id="SHFSCuuUwZEexuSwmKcd-8" value="&lt;span style=&quot;font-size: 18px;&quot;&gt;Python 批量脚本，数据分析等&lt;/span&gt;" style="rounded=0;whiteSpace=wrap;html=1;" vertex="1" parent="1">
          <mxGeometry x="80" y="450" width="440" height="40" as="geometry" />
        </mxCell>
        <mxCell id="SHFSCuuUwZEexuSwmKcd-9" value="&lt;div&gt;&lt;font style=&quot;font-size: 14px;&quot;&gt;工具类&lt;/font&gt;&lt;/div&gt;&lt;div&gt;&lt;font style=&quot;font-size: 14px;&quot;&gt;&lt;br&gt;&lt;/font&gt;&lt;/div&gt;&lt;div&gt;&lt;font style=&quot;font-size: 14px;&quot;&gt;&lt;br&gt;&lt;/font&gt;&lt;/div&gt;&lt;div&gt;&lt;font style=&quot;font-size: 14px;&quot;&gt;&lt;br&gt;&lt;/font&gt;&lt;/div&gt;&lt;div&gt;&lt;br&gt;&lt;/div&gt;" style="rounded=1;whiteSpace=wrap;html=1;fillColor=none;" vertex="1" parent="1">
          <mxGeometry x="70" y="170" width="460" height="100" as="geometry" />
        </mxCell>
        <mxCell id="SHFSCuuUwZEexuSwmKcd-11" value="..." style="rounded=0;whiteSpace=wrap;html=1;" vertex="1" parent="1">
          <mxGeometry x="300" y="390" width="140" height="30" as="geometry" />
        </mxCell>
        <mxCell id="SHFSCuuUwZEexuSwmKcd-12" value="&lt;span style=&quot;font-size: 18px;&quot;&gt;LoadAddressPredictor&lt;/span&gt;" style="rounded=0;whiteSpace=wrap;html=1;" vertex="1" parent="1">
          <mxGeometry x="260" y="310" width="210" height="30" as="geometry" />
        </mxCell>
        <mxCell id="SHFSCuuUwZEexuSwmKcd-13" value="&lt;span style=&quot;font-size: 18px;&quot;&gt;LoadValuePredictor&lt;/span&gt;" style="rounded=0;whiteSpace=wrap;html=1;" vertex="1" parent="1">
          <mxGeometry x="260" y="350" width="210" height="30" as="geometry" />
        </mxCell>
      </root>
    </mxGraphModel>
  </diagram>
</mxfile>
